<?xml version="1.0" standalone="no"?><!DOCTYPE svg PUBLIC "-//W3C//DTD SVG 1.1//EN" "http://www.w3.org/Graphics/SVG/1.1/DTD/svg11.dtd"><svg t="1703814242265" class="icon" viewBox="0 0 1024 1024" version="1.1" xmlns="http://www.w3.org/2000/svg" p-id="8818" xmlns:xlink="http://www.w3.org/1999/xlink" width="128" height="128"><path d="M175.38 541.16c-12.01 0-21.97-9.49-22.45-21.6-0.19-4.75-0.36-9.52-0.36-14.32 0-198.32 161.35-359.67 359.67-359.67 124.8 0 238.88 63.3 305.15 169.34 6.57 10.53 3.38 24.39-7.16 30.98-10.5 6.6-24.38 3.38-30.98-7.16-58-92.79-157.82-148.2-267.02-148.2-173.54 0-314.71 141.18-314.71 314.71 0 4.21 0.15 8.39 0.32 12.57 0.49 12.4-9.17 22.85-21.58 23.34-0.29 0.01-0.59 0.01-0.88 0.01zM512.24 864.91c-124.81 0-238.89-63.31-305.15-169.35a22.465 22.465 0 0 1-0.55-22.89c3.97-7.1 11.48-11.5 19.61-11.5 1.15-0.03 2.81 0.01 4.23 0.01 84.96 0 198.66-20.04 312.88-55.22 116.01-35.74 222.82-84.09 293.04-132.66 6.75-4.66 15.5-5.31 22.83-1.62 7.33 3.67 12.1 11.03 12.41 19.23 0.19 4.75 0.36 9.53 0.36 14.34 0.01 198.3-161.34 359.66-359.66 359.66z m-243.2-159.95c59.45 72.64 147.74 114.99 243.2 114.99 164.01 0 299.13-126.12 313.46-286.47-71.73 42.93-167.26 84.03-269.2 115.44-101.95 31.4-204.04 51.17-287.46 56.04z" fill="#333333" p-id="8819"></path><path d="M226.15 706.12h-0.16c-114-0.87-148.51-35.41-157.39-64.23-8.88-28.85 0.22-76.83 94-141.69 6.74-4.68 15.49-5.3 22.83-1.62a22.446 22.446 0 0 1 12.41 19.23c2.14 54.55 18.53 107.78 47.37 153.92 4.35 6.96 4.56 15.73 0.56 22.89a22.481 22.481 0 0 1-19.62 11.5z m-114.59-77.47c3.67 11.88 25.95 25.51 75.64 30.54a359.178 359.178 0 0 1-30.25-98.37c-38.29 32.14-49.04 55.96-45.39 67.83zM849.09 514.26c-3.42 0-6.87-0.78-10.04-2.37a22.45 22.45 0 0 1-12.41-19.22c-2.15-54.56-18.54-107.8-47.37-153.94a22.464 22.464 0 0 1-0.55-22.89c3.97-7.1 11.48-11.5 19.61-11.5h0.18c113.98 0.87 148.49 35.41 157.37 64.24 8.88 28.83-0.22 76.81-93.99 141.68-3.83 2.65-8.31 4-12.8 4z m-11.82-162.99a359.543 359.543 0 0 1 30.26 98.37c38.27-32.13 49.03-55.95 45.38-67.82-3.67-11.89-25.94-25.52-75.64-30.55z" fill="#333333" p-id="8820"></path><path d="M230.3 706.13c-1.45 0-2.89 0-4.32-0.01a22.473 22.473 0 0 1-18.89-10.56c-32.98-52.77-51.72-113.64-54.16-176-0.49-12.4 9.18-22.85 21.58-23.34 12.39-0.87 22.85 9.18 23.34 21.58 1.99 50.41 16.12 99.71 41.03 143.32 83.96-1.27 193.93-21.15 304.38-55.17 110.42-34.02 212.5-79.47 282.64-125.65-3.97-50.22-19.98-98.92-46.64-141.58-6.57-10.53-3.38-24.39 7.16-30.98 10.52-6.57 24.39-3.38 30.98 7.16 32.97 52.76 51.7 113.63 54.16 175.98 0.31 7.69-3.34 15-9.67 19.37-73.85 51.08-185.16 101.62-305.38 138.65-118.36 36.47-236.9 57.23-326.21 57.23z" fill="#333333" p-id="8821"></path><path d="M515.18 639.2m-67.44 0a67.44 67.44 0 1 0 134.88 0 67.44 67.44 0 1 0-134.88 0Z" fill="#D7261D" p-id="8822"></path></svg>