<?xml version="1.0" standalone="no"?><!DOCTYPE svg PUBLIC "-//W3C//DTD SVG 1.1//EN" "http://www.w3.org/Graphics/SVG/1.1/DTD/svg11.dtd"><svg t="1703845895880" class="icon" viewBox="0 0 1024 1024" version="1.1" xmlns="http://www.w3.org/2000/svg" p-id="11198" xmlns:xlink="http://www.w3.org/1999/xlink" width="128" height="128"><path d="M835.552 576L928 640l-416 288-416-288 92.448-64L96 512l416-288 416 288-92.448 64z" fill="#FFFFFF" p-id="11199"></path><path d="M172.224 626.144L152.224 640 512 889.088 871.776 640l-20-13.856 27.968-19.552L928 640l-416 288-416-288 48.256-33.408 27.968 19.552z" fill="#ACB4C0" p-id="11200"></path><path d="M195.2 546.24L152.224 576 512 825.088 871.776 576l-42.976-29.76 27.936-19.552L928 576l-416 288-416-288 71.264-49.312 27.936 19.552z" fill="#808FA1" p-id="11201"></path><path d="M195.2 482.24L152.224 512 512 761.088 871.776 512l-42.976-29.76 27.936-19.552L928 512l-416 288-416-288 71.264-49.312 27.936 19.552z" fill="#808FA1" p-id="11202"></path><path d="M512 115.456L124.096 384 512 652.544 899.904 384 512 115.456z" fill="#FFF4E8" p-id="11203"></path><path d="M512 96l416 288-416 288-416-288 416-288z m0 38.912L152.224 384 512 633.088 871.776 384 512 134.912z" fill="#C49F74" p-id="11204"></path></svg>