<?xml version="1.0" standalone="no"?><!DOCTYPE svg PUBLIC "-//W3C//DTD SVG 1.1//EN" "http://www.w3.org/Graphics/SVG/1.1/DTD/svg11.dtd"><svg t="1703814702030" class="icon" viewBox="0 0 1024 1024" version="1.1" xmlns="http://www.w3.org/2000/svg" p-id="6593" width="32" height="32" xmlns:xlink="http://www.w3.org/1999/xlink"><path d="M800 416h128v512H256v-64H160a32 32 0 0 1-32-32V128a32 32 0 0 1 32-32h608a32 32 0 0 1 32 32v68l96 89.216-96 103.264V416z" fill="#FFFFFF" p-id="6594"></path><path d="M192 832v32H160a32 32 0 0 1-32-32V128a32 32 0 0 1 32-32h608a32 32 0 0 1 32 32v32h-32V128H160v704h32z m64-416h672v512H256V416z m32 32v448h608V448H288z" fill="#5D6D7E" p-id="6595"></path><path d="M480.928 705.792l153.792 153.792 22.624-22.624-176.416-176.416-176.416 176.416 22.624 22.624z" fill="#30AD98" p-id="6596"></path><path d="M876.224 826.4l22.624-22.656-187.616-187.616-141.856 141.856 22.624 22.656 119.232-119.232z" fill="#30AD98" p-id="6597"></path><path d="M576 576m-64 0a64 64 0 1 0 128 0 64 64 0 1 0-128 0Z" fill="#C49F74" p-id="6598"></path><path d="M855.968 269.216L785.28 197.312a16 16 0 1 1 22.816-22.432l111.552 113.504-111.872 107.488a16 16 0 0 1-22.176-23.072l74.496-71.584H624a16 16 0 1 1 0-32h231.968z" fill="#27A2DF" p-id="6599"></path></svg>