<?xml version="1.0" standalone="no"?><!DOCTYPE svg PUBLIC "-//W3C//DTD SVG 1.1//EN" "http://www.w3.org/Graphics/SVG/1.1/DTD/svg11.dtd"><svg t="1703235668110" class="icon" viewBox="0 0 1024 1024" version="1.1" xmlns="http://www.w3.org/2000/svg" p-id="4467" xmlns:xlink="http://www.w3.org/1999/xlink" width="128" height="128"><path d="M1014.374 514.43a504.758 504.758 0 1 1-1009.492 0 504.758 504.758 0 1 1 1009.492 0z" fill="#13A034" p-id="4468"></path><path d="M546.872 154.478h94.993v719.857h-94.993z m-170.384 0h95.92v719.857h-95.92z" fill="#FFFFFF" p-id="4469"></path><path d="M158.121 154.478v5.074c0 186.115 157.039 337.385 351.148 337.385 194.132 0 351.89-151.27 351.89-337.385v-5.074H738.061c0.046 1.691 0 3.36 0 5.074 0 120.895-102.685 218.645-228.793 218.645s-228.075-97.75-228.075-218.645v-5.074H158.121z m703.037 719.88v-5.05c0-186.14-157.039-337.409-351.17-337.409-194.11 0-351.867 151.293-351.867 337.409v5.05h123.073v-5.05c0-120.919 102.708-218.668 228.793-218.668 126.109 0 228.075 97.772 228.075 218.668 0 1.691 0.046 3.36 0 5.05h123.096z" fill="#FFFFFF" p-id="4470"></path></svg>