<?xml version="1.0" standalone="no"?><!DOCTYPE svg PUBLIC "-//W3C//DTD SVG 1.1//EN" "http://www.w3.org/Graphics/SVG/1.1/DTD/svg11.dtd"><svg t="1703814188953" class="icon" viewBox="0 0 1024 1024" version="1.1" xmlns="http://www.w3.org/2000/svg" p-id="8493" xmlns:xlink="http://www.w3.org/1999/xlink" width="128" height="128"><path d="M760.29 957.94H119.38c-25.25 0-45.78-20.53-45.78-45.78V271.24c0-25.25 20.53-45.78 45.78-45.78h125.89c12.64 0 22.89 10.25 22.89 22.89s-10.25 22.89-22.89 22.89H119.38v640.92H760.3V774.82c0-12.64 10.25-22.89 22.89-22.89s22.89 10.25 22.89 22.89v137.34c-0.01 25.25-20.54 45.78-45.79 45.78zM909.08 797.71h-57.22c-12.64 0-22.89-10.25-22.89-22.89s10.25-22.89 22.89-22.89h57.22V111.02H268.16v68.67c0 12.64-10.25 22.89-22.89 22.89s-22.89-10.25-22.89-22.89v-68.67c0-25.25 20.53-45.78 45.78-45.78h640.92c25.25 0 45.78 20.53 45.78 45.78v640.92c0 25.24-20.53 45.77-45.78 45.77z" fill="#333333" p-id="8494"></path><path d="M783.18 797.71c-12.64 0-22.89-10.25-22.89-22.89V271.24H245.27c-12.64 0-22.89-10.25-22.89-22.89s10.25-22.89 22.89-22.89h515.02c25.25 0 45.78 20.53 45.78 45.78v503.58c0 12.64-10.25 22.89-22.89 22.89z" fill="#333333" p-id="8495"></path><path d="M268.16 511.59c-44.17 0-80.11-35.94-80.11-80.11s35.94-80.11 80.11-80.11 80.11 35.94 80.11 80.11-35.94 80.11-80.11 80.11z m0-114.45c-18.93 0-34.33 15.4-34.33 34.33s15.4 34.33 34.33 34.33 34.33-15.4 34.33-34.33-15.4-34.33-34.33-34.33z" fill="#D7261D" p-id="8496"></path><path d="M371.16 568.81l91.56 114.45 80.11-80.11L657.29 820.6h-457.8l171.67-251.79m0.01-45.78c-0.58 0-1.17 0.01-1.75 0.03a45.77 45.77 0 0 0-36.08 19.96L161.66 794.81a45.775 45.775 0 0 0-2.65 47.18c7.93 15 23.51 24.39 40.48 24.39h457.8c16.04 0 30.9-8.39 39.19-22.12a45.767 45.767 0 0 0 1.32-44.98L583.35 581.83a45.801 45.801 0 0 0-40.52-24.46c-12.05 0-23.72 4.76-32.37 13.41l-43.95 43.95-59.61-74.51a45.732 45.732 0 0 0-35.73-17.19z" fill="#333333" p-id="8497"></path></svg>