<?xml version="1.0" standalone="no"?><!DOCTYPE svg PUBLIC "-//W3C//DTD SVG 1.1//EN" "http://www.w3.org/Graphics/SVG/1.1/DTD/svg11.dtd"><svg t="1703845933873" class="icon" viewBox="0 0 1024 1024" version="1.1" xmlns="http://www.w3.org/2000/svg" p-id="11361" xmlns:xlink="http://www.w3.org/1999/xlink" width="128" height="128"><path d="M189.376 576l-43.68-66.656 38.976-27.808-17.408-18.88 28.352-19.712L118.496 384 512 112.352l402.56 273.6-80.768 61.216 22.944 15.52 17.12 49.312 2.688 35.616-55.84 38.368 93.824 56 13.472 43.904-60.032 74.944-47.264 2.656-13.248 173.92-260.48 19.616L136.896 633.984l7.36-27.392z" fill="#FFFFFF" p-id="11362"></path><path d="M493.312 915.072L96 640l48.256-33.408 27.968 19.552-20 13.856 341.088 236.16z" fill="#ACB4C0" p-id="11363"></path><path d="M384 711.36L96 512l71.264-49.312 27.936 19.552-42.976 29.76L384 672.48v38.912zM871.776 512l-42.976-29.76 27.936-19.552L928 512l-51.456 35.616-30.4-17.888 25.632-17.728z" fill="#808FA1" p-id="11364"></path><path d="M453.504 592.576l-28.832 18.976L96 384l416-288 416 288-256.448 177.536a155.776 155.776 0 0 1-43.136-9.056L871.776 384 512 134.912 152.224 384l301.28 208.576z" fill="#5D6D7E" p-id="11365"></path><path d="M832 772V960h-288v-188h-7.104l-30.24 28L416 688l151.104-112c40.32 37.344 80.608 56 120.896 56 40.32 0 80.608-18.656 120.896-56L960 660 869.344 800l-30.24-28H832zM800 928v-188h51.648l11.52 10.656 51.36-79.328-101.664-56.512c-40.32 32.416-82.048 49.184-124.864 49.184-41.92 0-82.784-16.064-122.304-47.136l-103.808 76.96 48.128 59.456 14.336-13.28H576V928h224z" fill="#27A2DF" p-id="11366"></path></svg>